#Comment line ignore any data following # character 
#Hierarchical Translation and Rotation (.htr) file 
[Header]	
#Header keywords are followed by a single value 
FileType HTR		#Single word string
DataType HTRS		#Translation followed by rotation and scale data
FileVersion 1		#integer
NumSegments 25		#integer
NumFrames 4		#integer
DataFrameRate 30		#integer, data frame rate in this file
EulerRotationOrder ZYX
CalibrationUnits mm
RotationUnits Degrees
GlobalAxisofGravity Y
BoneLengthAxis Y
ScaleFactor 1.00
[SegmentNames&Hierarchy]
#CHILD	PARENT
BN_Tick_Root GLOBAL
BN_Torso BN_Tick_Root
BN_L_Leg_Front01 BN_Torso
BN_L_Leg_Rear01 BN_Torso
BN_MetalTop BN_Torso
BN_Neck BN_Torso
BN_R_Leg_Front01 BN_Torso
BN_R_Leg_Rear01 BN_Torso
BN_Sack BN_Torso
BN_L_Leg_Front02 BN_L_Leg_Front01
BN_L_Leg_Front03 BN_L_Leg_Front02
BN_L_Leg_Rear02 BN_L_Leg_Rear01
BN_L_Leg_Rear03 BN_L_Leg_Rear02
BN_Head BN_Neck
BN_Needle BN_Head
BN_R_Leg_Front02 BN_R_Leg_Front01
BN_R_Leg_Front03 BN_R_Leg_Front02
BN_R_Leg_Rear02 BN_R_Leg_Rear01
BN_R_Leg_Rear03 BN_R_Leg_Rear02
BN_SackDef01 BN_Sack
BN_SackDef02 BN_Sack
BN_SackDef03 BN_Sack
BN_SackDef04 BN_Sack
BN_SackDef05 BN_Sack
BN_SackDef06 BN_Sack
[BasePosition]
#SegmentName Tx, Ty, Tz, Rx, Ry, Rz, BoneLength
BN_Tick_Root 0.000000 0.000000 0.000000 -90.000000 0.000000 0.000000 10.000000 
BN_Torso 0.000000 0.000000 0.000000 0.000000 0.000000 0.000000 10.000000 
BN_L_Leg_Front01 0.000000 0.000000 0.000000 0.000000 0.000000 0.000000 10.000000 
BN_L_Leg_Rear01 0.000000 0.000000 0.000000 0.000000 0.000000 0.000000 10.000000 
BN_MetalTop 0.000000 0.000000 0.000000 0.000000 0.000000 0.000000 10.000000 
BN_Neck 0.000000 0.000000 0.000000 0.000000 0.000000 0.000000 10.000000 
BN_R_Leg_Front01 0.000000 0.000000 0.000000 0.000000 0.000000 0.000000 10.000000 
BN_R_Leg_Rear01 0.000000 0.000000 0.000000 0.000000 0.000000 0.000000 10.000000 
BN_Sack 0.000000 0.000000 0.000000 0.000000 0.000000 0.000000 10.000000 
BN_L_Leg_Front02 0.000000 0.000000 0.000000 0.000000 0.000000 0.000000 10.000000 
BN_L_Leg_Front03 0.000000 0.000000 0.000000 0.000000 0.000000 0.000000 10.000000 
BN_L_Leg_Rear02 0.000000 0.000000 0.000000 0.000000 0.000000 0.000000 10.000000 
BN_L_Leg_Rear03 0.000000 0.000000 0.000000 0.000000 0.000000 0.000000 10.000000 
BN_Head 0.000000 0.000000 0.000000 0.000000 0.000000 0.000000 10.000000 
BN_Needle 0.000000 0.000000 0.000000 0.000000 0.000000 0.000000 10.000000 
BN_R_Leg_Front02 0.000000 0.000000 0.000000 0.000000 0.000000 0.000000 10.000000 
BN_R_Leg_Front03 0.000000 0.000000 0.000000 0.000000 0.000000 0.000000 10.000000 
BN_R_Leg_Rear02 0.000000 0.000000 0.000000 0.000000 0.000000 0.000000 10.000000 
BN_R_Leg_Rear03 0.000000 0.000000 0.000000 0.000000 0.000000 0.000000 10.000000 
BN_SackDef01 0.000000 0.000000 0.000000 0.000000 0.000000 0.000000 10.000000 
BN_SackDef02 0.000000 0.000000 0.000000 0.000000 0.000000 0.000000 10.000000 
BN_SackDef03 0.000000 0.000000 0.000000 0.000000 0.000000 0.000000 10.000000 
BN_SackDef04 0.000000 0.000000 0.000000 0.000000 0.000000 0.000000 10.000000 
BN_SackDef05 0.000000 0.000000 0.000000 0.000000 0.000000 0.000000 10.000000 
BN_SackDef06 0.000000 0.000000 0.000000 0.000000 0.000000 0.000000 10.000000 
#Beginning of Data. Separated by tabs
#Fr	Tx	Ty	Tz	Rx	Ry	Rz	SF
[BN_Tick_Root]
102 0.000000 -189.049637 0.000000 0.000000 0.000000 -0.000020 189.049637
103 0.000000 -217.637146 0.000000 0.000000 0.000000 -0.000020 217.637146
104 0.000000 -242.051331 0.000000 0.000000 0.000000 -0.000020 242.051331
105 0.000000 -261.040405 0.000000 0.000000 0.000000 -0.000020 261.040436
[BN_Torso]
102 65.938774 4.898010 350.656677 30.020330 -0.431862 10.217572 356.836151
103 65.938774 26.014687 334.242096 27.073631 -0.432142 10.217956 341.675964
104 65.938774 53.547398 318.598633 27.073380 -0.432141 10.217955 329.727661
105 65.938774 80.374252 301.025452 27.073380 -0.432141 10.217955 318.471771
[BN_L_Leg_Front01]
102 -68.477791 10.734189 -26.804373 25.491774 56.589314 -132.437653 74.316254
103 -68.477791 10.734189 -26.804373 19.430101 59.014957 -139.961151 74.316254
104 -68.477791 10.734189 -26.804373 16.852442 58.525391 -142.022720 74.316254
105 -68.477791 10.734189 -26.804373 13.704779 57.561993 -143.620209 74.316254
[BN_L_Leg_Rear01]
102 -72.133743 -73.994843 -18.268616 111.505524 52.560875 -127.086380 104.939293
103 -72.133743 -73.994843 -18.268616 109.494850 55.113415 -131.363602 104.939293
104 -72.133743 -73.994843 -18.268616 107.661888 53.534508 -132.877029 104.939293
105 -72.133743 -73.994843 -18.268616 104.940048 51.018063 -134.268723 104.939293
[BN_MetalTop]
102 0.000008 13.737477 26.403606 82.216316 -53.604816 -96.089172 29.763546
103 0.000008 13.737477 26.403606 85.543427 -51.995251 -100.393211 29.763546
104 0.000008 13.737477 26.403606 90.488144 -50.298008 -106.909851 29.763546
105 0.000008 13.737477 26.403606 94.429253 -48.322159 -112.387634 29.763546
[BN_Neck]
102 0.000014 95.233284 10.002091 -89.999672 -65.297531 89.999657 95.757088
103 0.000014 95.233284 10.002091 -89.999672 -65.297531 89.999657 95.757088
104 0.000014 95.233284 10.002091 -89.999672 -65.297531 89.999657 95.757088
105 0.000014 95.233284 10.002091 -89.999672 -65.297531 89.999657 95.757088
[BN_R_Leg_Front01]
102 68.477768 10.734107 -26.804314 -67.741219 51.314701 -85.912659 74.316193
103 68.477768 10.734107 -26.804314 -68.456200 55.559101 -82.200874 74.316193
104 68.477768 10.734107 -26.804314 -67.060120 55.584057 -82.250031 74.316193
105 68.477768 10.734107 -26.804314 -64.343735 55.108501 -83.747108 74.316193
[BN_R_Leg_Rear01]
102 72.133751 -73.994873 -18.268644 -101.997070 56.461086 -72.793152 104.939331
103 72.133751 -73.994873 -18.268644 -83.198334 52.551231 -73.562508 104.939331
104 72.133751 -73.994873 -18.268644 -70.194061 44.703064 -79.954208 104.939331
105 72.133751 -73.994873 -18.268644 -64.444130 37.005650 -85.891876 104.939331
[BN_Sack]
102 -0.000000 -78.024918 33.657791 92.387070 -23.680698 -95.531563 84.974907
103 -0.000000 -78.024918 33.657791 93.441475 -18.571905 -98.204979 84.974907
104 -0.000000 -78.024918 33.657791 93.905785 -8.878519 -101.297348 84.974907
105 -0.000000 -78.024918 33.657791 93.941116 -2.684227 -105.448456 84.974907
[BN_L_Leg_Front02]
102 142.805023 -0.000015 -0.000104 0.190687 -0.014859 -62.845158 142.805023
103 142.805023 -0.000015 -0.000104 0.199065 0.045366 -68.843414 142.805023
104 142.805023 -0.000015 -0.000104 0.201105 0.106137 -74.841606 142.805023
105 142.805023 -0.000015 -0.000104 0.202739 0.183942 -81.670609 142.805023
[BN_L_Leg_Front03]
102 124.143021 -0.000045 0.000007 0.352023 -0.391601 60.360676 124.143021
103 124.143021 -0.000045 0.000007 0.354403 -0.415607 68.916245 124.143021
104 124.143021 -0.000045 0.000007 0.353186 -0.439699 77.471703 124.143021
105 124.143021 -0.000045 0.000007 0.354962 -0.447836 86.612190 124.143021
[BN_L_Leg_Rear02]
102 139.939041 0.000075 -0.000022 0.129005 -0.215646 82.310860 139.939041
103 139.939041 0.000075 -0.000022 0.109389 -0.217582 87.055283 139.939041
104 139.939041 0.000075 -0.000022 0.094285 -0.221576 91.322067 139.939041
105 139.939041 0.000075 -0.000022 0.078927 -0.224435 95.588760 139.939041
[BN_L_Leg_Rear03]
102 142.839615 0.000179 -0.000060 0.000165 -0.002341 -98.072922 142.839615
103 142.839615 0.000179 -0.000060 0.000290 -0.002329 -104.170181 142.839615
104 142.839615 0.000179 -0.000060 0.000395 -0.002314 -109.377136 142.839615
105 142.839615 0.000179 -0.000060 0.000495 -0.002294 -114.356682 142.839615
[BN_Head]
102 57.062447 -0.000030 0.000000 -9.723784 18.332006 23.560978 57.062447
103 57.062447 -0.000030 0.000000 -10.037827 18.188322 19.684078 57.062447
104 57.062447 -0.000030 0.000000 -9.734956 18.342077 20.640388 57.062447
105 57.062447 -0.000030 0.000000 -8.930800 18.724941 23.147825 57.062447
[BN_Needle]
102 33.891129 69.020317 -0.000029 0.000003 0.000030 87.896805 76.892220
103 34.140106 75.803604 -0.000062 0.000003 0.000030 87.896805 83.136841
104 34.274319 79.456512 -0.000067 0.000003 0.000030 87.896805 86.533615
105 34.092838 74.514381 -0.000052 0.000003 0.000030 87.896805 81.943367
[BN_R_Leg_Front02]
102 142.804947 -0.000060 0.000060 -0.184959 0.293489 91.977089 142.804947
103 142.804947 -0.000060 0.000060 -0.170014 0.360225 98.746864 142.804947
104 142.804947 -0.000060 0.000060 -0.145840 0.433304 105.791931 142.804947
105 142.804947 -0.000060 0.000060 -0.112092 0.525531 114.598045 142.804947
[BN_R_Leg_Front03]
102 124.143005 -0.000060 -0.000156 -0.352887 -0.442160 -99.470978 124.143005
103 124.143005 -0.000060 -0.000156 -0.356097 -0.427727 -107.232964 124.143005
104 124.143005 -0.000060 -0.000156 -0.354287 -0.409345 -114.701309 124.143005
105 124.143005 -0.000060 -0.000156 -0.352180 -0.373639 -123.149940 124.143005
[BN_R_Leg_Rear02]
102 139.939011 -0.000149 0.000015 0.016398 -0.268113 -124.104919 139.939011
103 139.939011 -0.000149 0.000015 0.005684 -0.243944 -120.873886 139.939011
104 139.939011 -0.000149 0.000015 -0.035861 -0.256345 -108.655441 139.939011
105 139.939011 -0.000149 0.000015 -0.088654 -0.236835 -94.515312 139.939011
[BN_R_Leg_Rear03]
102 142.839417 0.000075 0.000119 0.002123 -0.001002 140.520950 142.839417
103 142.839417 0.000075 0.000119 0.002143 -0.000958 138.154068 142.839417
104 142.839417 0.000075 0.000119 0.002220 -0.000761 127.856239 142.839417
105 142.839417 0.000075 0.000119 0.002300 -0.000471 113.132034 142.839417
[BN_SackDef01]
102 597.936646 -15.747027 103.387054 -128.408218 -44.374973 -11.740845 607.013184
103 597.936646 -15.747024 103.387054 -128.408218 -44.374973 -11.740845 607.013184
104 597.936646 -15.747022 103.387054 -128.408218 -44.374973 -11.740845 607.013184
105 597.936646 -15.747018 103.387054 -128.408218 -44.374973 -11.740845 607.013184
[BN_SackDef02]
102 233.072174 -211.160019 118.223595 32.077126 -27.375721 -88.781525 335.988129
103 233.072174 -211.160019 118.223602 32.077126 -27.375721 -88.781525 335.988129
104 233.072174 -211.160019 118.223602 32.077126 -27.375721 -88.781525 335.988129
105 233.072174 -211.160019 118.223602 32.077126 -27.375721 -88.781525 335.988129
[BN_SackDef03]
102 597.936523 -15.747007 -103.387161 18.144459 44.375008 -11.740894 607.013123
103 597.936523 -15.747005 -103.387161 18.144459 44.375008 -11.740894 607.013123
104 597.936523 -15.747005 -103.387161 18.144459 44.375008 -11.740894 607.013123
105 597.936523 -15.747004 -103.387161 18.144459 44.375008 -11.740894 607.013123
[BN_SackDef04]
102 233.072037 -211.159973 -118.223366 146.059982 27.375723 -88.781555 335.987915
103 233.072037 -211.159973 -118.223366 146.059982 27.375723 -88.781555 335.987915
104 233.072037 -211.159973 -118.223366 146.059982 27.375723 -88.781555 335.987915
105 233.072037 -211.159973 -118.223366 146.059982 27.375723 -88.781555 335.987915
[BN_SackDef05]
102 289.341003 263.516846 -164.100403 0.155741 51.314110 90.605110 424.368103
103 289.341003 263.516846 -164.100388 0.155741 51.314110 90.605110 424.368103
104 289.341003 263.516846 -164.100388 0.155741 51.314110 90.605110 424.368103
105 289.341003 263.516846 -164.100388 0.155741 51.314110 90.605110 424.368103
[BN_SackDef06]
102 289.341034 263.516968 164.100021 152.058487 -51.314072 90.605019 424.368042
103 289.341034 263.516998 164.100037 152.058487 -51.314072 90.605019 424.368073
104 289.341034 263.516998 164.100037 152.058487 -51.314072 90.605019 424.368073
105 289.341034 263.516998 164.100037 152.058487 -51.314072 90.605019 424.368073
